<svg version="1.2" xmlns="http://www.w3.org/2000/svg" viewBox="0 0 100 30" width="100" height="30">
	<title>Nytt projekt</title>
	<style>
		.s0 { fill: #2563eb } 
		.s1 { fill: #000000 } 
	</style>
	<path id="NoteHub" class="s0" aria-label="NoteHub"  d="m14.1 27.4l0.1 0.7q0 0.7-0.7 1.3-0.5 0.5-1.3 0.5-0.8 0-1.7-1-0.8-1.1-0.8-1.9 0-0.9 0.5-1.8 0-0.2 0.2-2.5 0.2-2.3 1.1-7.6 1-5.4 1.2-7.4v-0.3q0-0.9-0.6-0.9-0.6 0-1.3 0.6 0.1 0.2 0.1 0.6 0 0.4-1 2.8-1 2.3-2.8 7-0.5 1.3-1.4 1.3-0.9 0-1.6-1.1-0.7-1.1-0.7-1.8 0-0.8 0.2-1.5 0.9-2.1 2.1-4.3 1.1-2.1 1.8-3.4 0.6-1.3 1-1.8 0.3-0.6 0.7-0.6 0.4 0 0.6 0.1 0.7-0.9 1.9-0.9 1.1 0 2.3 0.8 1.2 0.7 1.2 3.6 0 1-0.2 2.9-0.2 1.8-0.2 2.4 2.9-8.4 5.2-10.5 0.4-0.3 1.1-0.3 1.6 0 2 0.6 0.4 0.6 0.4 2.3 0 1.7-0.3 3.6-0.3 1.9-1 4.9-0.7 3-0.9 4-0.2 0.9-0.2 1.8 0 0.9 0.1 0.9 0.3 0 1.5-1.9 1.1-2 1.4-2 0.2 0 0.2 0.7 0 2.4-0.6 5.1-0.5 2.7-1.6 4.1-1 1.4-1.8 1.4-0.4 0-0.9-0.3-0.6-0.5-0.7-0.6-1.2-1.3-1.2-3.8 0-2.2 2.3-13 0.7-3.5 0.9-4.8-2.7 4.5-4.2 9.6-1.5 5.1-2.3 11.5z"/>
	<path id="NoteHub" class="s1" aria-label="NoteHub"  d="m33.9 19.7q0 4.4-2.5 7.7-0.9 1.2-2 1.2-1.1 0-1.8-0.5-2.3-2-2.3-6.7 0-3.3 1.7-8.4 0.2-0.3 0.3-0.4 0.1-0.1 0.4-0.1 0.2 0 0.6-0.4 0.4-0.4 1.3-0.4 1 0 1.9 0.7 0.9 0.7 1.4 1.9 1 2.7 1 5.4zm-3-2.3q0-3.3-0.8-3.3-0.4 0-0.7 0.6-1.5 3.4-1.5 8.1 0 1.2 0 1.8 3-2.2 3-7.2zm9.5-5l2.9-0.2q1.1 0 1.1 1.5 0 0.7-0.5 1-1.1 1.1-3.9 1.5-0.4 3.4-0.4 5.7 0 2.2 0.3 2.2 0.3 0 1.5-1.1 1.3-1.2 1.5-1.2 0.6 0 0.6 1.9 0 1.8-0.7 3.6-0.7 1.8-1.9 1.8-0.6 0-1.1-0.3-0.5-0.4-0.8-0.8-0.3-0.4-0.8-1.1-0.5-0.8-0.6-0.9-0.9-1.4-1-2.7-0.1-1.3-0.1-3.1 0-1.7 0.2-3.8-1.1 0-1.9-0.8-0.7-0.7-1.1-1.8-0.4-1-0.4-1.2 0-0.5 0.5-0.5l3.5 0.3q0.2-1.2 0.5-3.1 0.7-2.9 0.7-3.4l-0.1-0.7q0-0.5 0.6-0.5 0.7 0 1.6 0.6 1 0.7 1 1.2 0 0.3-0.3 1-0.3 1.2-0.9 4.9zm15.2 11q0 5.5-5.5 5.5-2.3 0-3.4-1.2-1-1.2-1.8-3.6-0.3-0.9-0.3-2 0-1.1 0.9-2.8 1-1.8 2.1-3.2 0.2-1.9 0.9-1.9 0.4 0 0.6 0.4 0.7-0.7 1.8-1.3 1.1-0.7 2-0.7 0.8 0 1.7 1.1 1 1 1 2 0 1.1-1.5 2.9-2.8 3.5-4.4 3.5-1.1 0-1.8-1.9 0 0-0.3 0.6-0.3 0.5-0.5 0.7-0.1 0.3-0.3 0.7-0.3 0.9-0.3 1.5 0 1.5 1.4 1.5 2.5 0 4.2-1 1.7-1.1 3.4-3.2 0.1 1.6 0.1 2.4zm-5.8-4.3q0.5 0 1.7-1.4 1.1-1.4 1.1-1.9 0-0.6-0.4-0.6-0.3 0-1.3 1-0.9 0.9-1.4 1.6-0.1 0.4-0.1 0.6 0 0.7 0.4 0.7zm8.8-1.6l1.2 0.3q0.7 0 2.8-0.6 0.4-1.8 1.2-5.2 1.4-5.2 1.4-5.8 0-0.6-0.4-0.6-0.4 0-1.2 0.2-0.9 0.3-0.9 0.6 0 0.3 0.6 0.9 0.5 0.6 0.5 0.8 0 0.3 0 0.3-2.8 3.6-5 5.3-0.4 0.2-0.7 0.2-0.8 0-1.1-1-0.1-0.3-0.4-0.9-0.6-1.4-0.6-2.1 0-0.7 0.6-1.3 2.5-2.5 6.2-5.2 0.5-0.4 1.2-0.4 0.8 0 1.7 0.3 0.9 0.3 1.7 1.9 0.7 1.6 0.7 2.5 0 0.8-0.3 2.3-0.3 1.5-1.3 6.2l1.7-0.4q0.7-5.9 2.4-11.9 0.1-0.2 0.1-0.4 0-0.2-0.2-0.5-0.2-0.3-0.2-0.5 0-0.1 0.2-0.1 0.2 0 0.5 0.1 1.4 1 1.4 1.9 0 0.4-0.1 0.9-0.9 4.4-1.5 10 0.2-0.1 0.6-0.1 0.4 0 1.4 0.4 1.1 0.4 1.1 1 0 0.2-0.3 0.4-0.2 0.2-1.2 1-0.9 0.8-1.2 0.9-0.3 0.2-0.7 0.3-0.2 2.3-0.2 3.2 0 0.9 0.3 2.5 0.3 1.5 0.3 2 0 0.5-0.3 1.2-0.2 0.6-0.6 0.6-0.3 0-0.8-0.4-1.6-1.5-1.6-3.3 0-1.8 0.3-5-1.1 0.3-2.5 0.7-0.9 4.1-0.9 5.1l0.3 2.4q0 0.6-0.3 1.2-0.4 0.5-0.8 0.5-0.5 0-0.8-0.3-0.2-0.3-0.6-1-0.3-0.7-0.3-0.7-0.7-1.3-0.7-2.3 0-1.1 0.4-3.8-1.2-0.2-1.6-0.8-0.5-0.5-1.2-1.7-0.6-1.1-0.6-1.4 0-0.4 0.3-0.4zm16.3-5.7l1.7-0.3q0.8 0 1.5 0.6 0.1 0.1 0.5 0.4 0.4 0.3 0.6 0.4 0.6 0.6 0.6 1 0 0.3-0.7 2.1-0.6 1.8-1.4 3.8-0.9 2.5-0.9 2.8 0 0.2 0.2 0.2 0.3 0 2.1-3.4 1.9-3.4 2.9-5.3 0.3-0.7 1-0.7 1.5 0 1.5 1.2 0 0.7-0.9 4.1-1.2 4.4-1.2 4.8 0 0.4 0.2 0.4 0.2 0 0.8-1.9 0.6-1.9 0.9-1.9 0.1 0 0.3 0.3 0.9 1.9 0.9 3.5 0 1.6-1.1 3.6-0.5 1-1.4 1-0.6 0-0.8-0.3-0.8-0.8-0.9-1.1-0.7-0.9-1.1-3.1-0.3 0.5-0.7 1.3-0.8 1.9-1.5 2.8-0.4 0.6-1.1 0.6-0.6 0-1.4-0.9-1.2-1.7-1.3-3.7 0-2 0.4-3.7 0.5-1.8 1.3-4.3l0.1-0.5q0-0.3-0.2-0.3l-0.8 0.3q-0.6 0-0.9-0.8-0.6-1.3-0.6-2.8 0-0.4 0.4-0.4zm15.2 12.3l1 0.2q1.2 0 1.7-1.2 0.4-0.7 0.9-2.4 0.5-1.8 0.5-2.3 0-1.1-0.8-1.1-0.1 0-0.3 0.1-2 0.5-2.7 1.9-1.1 2-1.1 4.4 0 1.2 0.2 2.5 0.3 1.3 0.3 1.7 0 1.4-0.8 1.4-0.9 0-2.2-3.6-0.5-1.5-0.7-2-0.2-0.4-0.2-1 0-1.1 1.4-3.7 0.7-9.4 2.7-17.1 0.2-0.7 0.5-0.7 0.4 0 0.6 0.6 0.2 0.6 0.2 1 0 0.4-0.4 3.3-0.3 2.8-0.7 8.9 1.9-1.7 3.4-1.7 0.9 0 1.5 0.7 0.7 0.7 1.1 1.7 0.6 2.1 0.6 3.9 0 4.7-3.2 9.1-0.7 0.9-1.4 0.9-0.9 0-1.7-1.9-0.8-1.9-0.8-3 0-0.6 0.4-0.6z"/>
</svg>